<?xml version="1.0" standalone="no"?>
<!DOCTYPE svg PUBLIC "-//W3C//DTD SVG 20010904//EN"
 "http://www.w3.org/TR/2001/REC-SVG-20010904/DTD/svg10.dtd">
<svg version="1.0" xmlns="http://www.w3.org/2000/svg"
 width="402.000000pt" height="354.000000pt" viewBox="0 0 402.000000 354.000000"
 preserveAspectRatio="xMidYMid meet">

<g transform="translate(0.000000,354.000000) scale(0.100000,-0.100000)"
fill="#000000" stroke="none">
<path d="M1396 3418 c-17 -64 5 -217 42 -300 10 -24 40 -69 66 -100 26 -32 44
-58 40 -58 -17 0 -80 51 -99 80 -27 41 -39 38 -30 -7 29 -162 167 -253 381
-253 67 0 92 -14 47 -27 -44 -12 -192 -7 -250 10 -29 8 -53 10 -53 5 0 -13
112 -83 172 -106 29 -12 113 -37 186 -57 125 -33 199 -61 190 -71 -15 -14
-311 53 -381 86 -26 13 -50 20 -53 17 -3 -2 18 -32 45 -65 141 -169 233 -237
368 -273 79 -21 84 -24 57 -31 -16 -5 -55 -7 -86 -4 -32 3 -58 2 -58 -3 0 -4
39 -18 88 -30 125 -33 141 -43 57 -36 -38 3 -82 8 -97 11 -41 9 -36 -10 23
-100 68 -102 105 -128 208 -145 45 -7 84 -17 87 -22 9 -15 -49 -22 -98 -12
-26 5 -48 8 -48 7 0 -1 18 -37 41 -78 33 -61 56 -88 115 -137 41 -33 74 -64
74 -69 0 -27 -61 -172 -120 -286 -40 -76 -71 -151 -75 -178 -7 -43 -9 -46 -39
-47 -17 0 -74 -9 -126 -19 -81 -15 -88 -18 -49 -19 37 -1 48 -5 52 -20 4 -16
-1 -21 -27 -24 -17 -3 -4 -3 29 -1 33 2 82 9 110 16 44 12 50 17 56 45 3 18
24 63 46 100 101 171 187 368 217 500 45 199 -6 406 -157 635 -113 172 -173
232 -676 669 -79 69 -129 119 -118 119 10 0 319 -241 443 -346 143 -121 207
-190 319 -339 106 -142 179 -270 211 -370 45 -139 32 -341 -30 -495 -14 -33
-21 -60 -16 -60 15 0 68 103 90 175 11 39 38 106 60 150 51 105 70 175 69 249
l0 61 -24 -64 c-33 -89 -49 -101 -38 -31 13 89 8 280 -9 325 l-15 40 -8 -75
c-4 -40 -13 -92 -20 -115 l-12 -40 -7 55 c-20 146 -76 308 -147 425 -37 61
-114 151 -103 120 20 -58 50 -234 37 -221 -2 2 -11 30 -19 63 -9 32 -34 96
-56 143 -32 67 -57 101 -117 161 -85 85 -159 131 -300 190 -53 22 -114 51
-137 64 -42 25 -124 107 -124 125 0 5 -5 10 -11 10 -8 0 -10 -20 -5 -67 l6
-68 -60 64 c-33 35 -74 88 -91 118 -17 29 -32 53 -34 53 -1 0 -5 -10 -9 -22z
m646 -455 c51 -49 108 -137 96 -149 -3 -2 -19 17 -37 42 -33 45 -162 161 -213
192 -53 31 -28 32 34 1 34 -17 88 -56 120 -86z"/>
<path d="M1938 1053 c6 -2 18 -2 25 0 6 3 1 5 -13 5 -14 0 -19 -2 -12 -5z"/>
<path d="M731 666 c-18 -7 -44 -24 -57 -40 -47 -53 -23 -113 64 -163 106 -61
136 -99 112 -142 -23 -43 -118 -43 -141 1 -6 11 -9 36 -6 54 5 28 3 34 -12 34
-22 0 -51 -31 -51 -54 0 -31 19 -53 60 -70 50 -20 100 -20 145 -2 39 17 55 42
55 86 0 50 -26 82 -106 133 -86 54 -106 85 -83 125 11 20 24 28 51 30 47 4 74
-30 65 -83 -6 -40 5 -45 41 -19 34 23 27 73 -13 95 -42 23 -85 29 -124 15z"/>
<path d="M1518 668 c-70 -18 -128 -107 -128 -198 0 -146 126 -241 245 -184 26
12 38 13 54 4 20 -10 21 -8 21 59 0 38 2 76 6 84 4 11 -9 15 -56 20 -35 4 -69
3 -78 -3 -13 -7 -7 -9 26 -10 l42 0 0 -65 c0 -53 -3 -66 -19 -75 -29 -15 -93
-12 -119 6 -51 35 -73 138 -52 239 20 97 91 144 141 94 17 -17 20 -29 15 -60
-5 -34 -4 -39 12 -39 24 0 52 31 52 58 0 51 -88 89 -162 70z"/>
<path d="M1120 470 l0 -190 30 0 30 0 0 190 0 190 -30 0 -30 0 0 -190z"/>
<path d="M1936 638 c3 -13 11 -25 16 -27 5 -1 58 -77 119 -167 60 -90 114
-164 119 -164 6 0 10 64 10 168 0 92 3 177 6 190 4 15 2 22 -7 22 -11 0 -13
-26 -11 -135 2 -74 0 -135 -5 -135 -4 0 -48 61 -97 135 -85 130 -90 135 -123
135 -31 0 -34 -2 -27 -22z"/>
<path d="M2430 470 l0 -190 30 0 30 0 0 190 0 190 -30 0 -30 0 0 -190z"/>
<path d="M2720 470 l0 -190 30 0 30 0 0 100 0 100 55 0 c33 0 55 4 55 11 0 7
-19 10 -52 7 l-53 -3 0 75 0 75 78 0 c42 -1 77 3 77 7 0 4 -49 8 -110 8 l-110
0 0 -190z"/>
<path d="M3216 558 c53 -102 54 -104 54 -190 l0 -88 30 0 30 0 0 81 c0 80 1
82 58 182 70 124 67 117 50 117 -7 0 -35 -39 -62 -87 l-49 -86 -18 24 c-10 13
-31 52 -46 87 -27 60 -29 62 -64 62 l-37 0 54 -102z"/>
<path d="M1939 573 c-8 -107 -8 -293 0 -293 7 0 11 52 11 150 0 83 -2 150 -5
150 -3 0 -5 -3 -6 -7z"/>
</g>
</svg>
